<svg xmlns="http://www.w3.org/2000/svg" xmlns:xlink="http://www.w3.org/1999/xlink" width="261.803" height="136.867" viewBox="0 0 261.803 136.867"><defs><style>.a{fill:#7ee060;}.b{fill:#6aa571;}.c{fill:#54885a;}.d{fill:url(#a);}.e{fill:url(#b);}.f,.t{fill:#fff;}.g{fill:#bddeff;}.h{fill:#f03f39;}.i{fill:#ff6a6f;}.j{fill:url(#f);}.k{fill:url(#g);}.l{fill:#fe9f9f;}.m{fill:#211d41;}.n{fill:#f4b696;}.o{fill:url(#l);}.p{fill:#241f4a;}.q{fill:url(#m);}.r{fill:#221e41;}.s{fill:#a587ff;}.t{font-size:18px;font-family:Poppins-Medium, Poppins;font-weight:500;}</style><linearGradient id="a" x1="0.5" x2="0.5" y2="1" gradientUnits="objectBoundingBox"><stop offset="0" stop-color="#4dbcfa"/><stop offset="1" stop-color="#1486db"/></linearGradient><linearGradient id="b" x1="0.5" x2="1" y2="0.894" gradientUnits="objectBoundingBox"><stop offset="0" stop-color="#0f1752"/><stop offset="1" stop-color="#272884"/></linearGradient><linearGradient id="f" x1="0.5" y1="-0.274" x2="0.5" y2="1" gradientUnits="objectBoundingBox"><stop offset="0" stop-color="#c0e4fd"/><stop offset="1" stop-color="#72b9fe"/></linearGradient><linearGradient id="g" x1="0.5" x2="0.5" y2="1" gradientUnits="objectBoundingBox"><stop offset="0" stop-color="#1d2a78"/><stop offset="1" stop-color="#12033b"/></linearGradient><linearGradient id="l" x1="0.5" x2="0.5" y2="1" gradientUnits="objectBoundingBox"><stop offset="0" stop-color="#ff9485"/><stop offset="1" stop-color="#ff676e"/></linearGradient><linearGradient id="m" x1="0.826" y1="-0.53" x2="0.826" y2="1.867" gradientUnits="objectBoundingBox"><stop offset="0" stop-color="#1533b6"/><stop offset="1" stop-color="#356be9"/></linearGradient></defs><g transform="translate(29.169 61.711)"><path class="a" d="M2.5,0H122.929a2.5,2.5,0,0,1,2.5,2.5V72.651a2.5,2.5,0,0,1-2.5,2.5H2.5a2.5,2.5,0,0,1-2.5-2.5V2.5A2.5,2.5,0,0,1,2.5,0Z" transform="translate(0 0)"/><path class="b" d="M100.782,66.81h-84.6a16.521,16.521,0,0,0-5.059-10.88A16.577,16.577,0,0,0,0,51.3V16.126a16.553,16.553,0,0,0,11.332-4.834A16.5,16.5,0,0,0,16.213,0h84.579a16.51,16.51,0,0,0,5.032,11.039,16.566,16.566,0,0,0,11.248,4.671V50.877a16.606,16.606,0,0,0-16.29,15.932ZM58.547,10.6a22.731,22.731,0,1,0,8.868,1.787A22.674,22.674,0,0,0,58.547,10.6Z" transform="translate(4.18 4.173)"/><path class="c" d="M58.546,10.6a22.745,22.745,0,1,0,0,45.49V66.809H16.185A16.606,16.606,0,0,0,0,51.3V16.126A16.6,16.6,0,0,0,16.213,0H58.546V10.6Z" transform="translate(4.18 4.173)"/></g><g transform="translate(204.025 33.693)"><path class="d" d="M.555,0h47.2a.555.555,0,0,1,.547.643L44.591,23.677a7.546,7.546,0,0,1-7.165,6.166H10.887a7.546,7.546,0,0,1-7.165-6.166L.007.643A.555.555,0,0,1,.555,0Z" transform="translate(0 11.129)"/><path class="e" d="M38.086,17.882H33.564l.457-4.317H38.7l-.614,4.316Zm-7.753,0H25.811L26,13.566h4.679l-.345,4.316Zm-7.753,0H18.057l-.079-4.317h4.679l-.077,4.316Zm-7.753,0H10.3l-.348-4.317h4.679l.191,4.316Zm-7.753,0H2.552l-.616-4.317H6.615l.459,4.316ZM39.05,11.1H34.282l.457-4.316h4.925L39.05,11.1Zm-8.174,0H26.107L26.3,6.783h4.925L30.876,11.1Zm-8.175,0H17.933l-.079-4.316h4.925L22.7,11.1Zm-8.174,0H9.758L9.411,6.783h4.925l.191,4.316Zm-8.175,0H1.584L.968,6.783H5.893L6.352,11.1ZM40.015,4.316H35L35.457,0h5.171l-.614,4.316Zm-8.6,0H26.4L26.593,0h5.171l-.345,4.316Zm-8.6,0H17.808L17.729,0H22.9l-.077,4.316Zm-8.6,0H9.212L8.864,0h5.171l.191,4.316Zm-8.6,0H.616L0,0H5.171L5.63,4.316Z" transform="translate(3.805 17.233)"/><path class="e" d="M48.031,13.478H.282L.007,11.772a.555.555,0,0,1,.547-.643h6.86V8.01A8,8,0,0,1,15.424,0H32.9a8,8,0,0,1,8.01,8.01v3.12h6.845a.555.555,0,0,1,.548.643l-.275,1.706ZM15.424,3.7A4.309,4.309,0,0,0,11.111,8.01v3.12H37.217V8.01A4.309,4.309,0,0,0,32.9,3.7Z" transform="translate(0 0)"/></g><g transform="translate(163.273 76.696)"><path class="d" d="M1.97,0H96.56a1.97,1.97,0,0,1,1.97,1.97v55.2a1.97,1.97,0,0,1-1.97,1.97H1.97A1.97,1.97,0,0,1,0,57.166V1.97A1.97,1.97,0,0,1,1.97,0Z" transform="translate(0 0)"/><path class="e" d="M0,0H98.53V11.827H0Z" transform="translate(0 9.856)"/><path class="f" d="M29.559,12.813H15.765V8.871H29.559v3.942Zm-17.735,0H0V8.871H11.823v3.942ZM39.412,3.942H19.706V0H39.412V3.942Zm-23.647,0H0V0H15.765V3.942Z" transform="translate(7.882 38.439)"/><ellipse class="g" cx="6.7" cy="6.702" rx="6.7" ry="6.702" transform="translate(68.38 38.439)"/><ellipse class="f" cx="6.7" cy="6.702" rx="6.7" ry="6.702" transform="translate(75.08 38.439)"/></g><g transform="translate(86.329 8.07)"><path class="h" d="M2.153,0H72.778a2.153,2.153,0,0,1,2.153,2.153V23.47a2.153,2.153,0,0,1-2.153,2.153H2.153A2.153,2.153,0,0,1,0,23.47V2.153A2.153,2.153,0,0,1,2.153,0Z" transform="translate(0 0)"/><path class="f" d="M7.967,15.934a7.967,7.967,0,1,1,7.967-7.967A7.967,7.967,0,0,1,7.967,15.934Z" transform="translate(51.246 4.952)"/><path class="i" d="M4.63.275A.861.861,0,1,1,5.893,1.447l-2.6,2.8a.861.861,0,0,1-1.14.109l-1.8-1.32A.861.861,0,0,1,1.37,1.645l1.184.867Z" transform="translate(56.198 10.551)"/></g><g transform="translate(142.806 22.729)"><path class="j" d="M0,4.809a2.147,2.147,0,0,0,.679-1.57V0L20.1,11.746l-3.238,5.7L0,4.809Z" transform="translate(17.774 5.571)"/><path class="k" d="M7.276,1.45A14.485,14.485,0,0,1,9.9,1.039c1.182-.061,1.129.357.989.813l-.706,2.308c-.253.828-.537.84-1.966.295a10.535,10.535,0,0,0-3.167-.968C3.454,3.254.379,2.265.034.985S2-.073,3.974.25A8.36,8.36,0,0,1,7.276,1.45Z" transform="translate(0 98.043)"/><path class="l" d="M7.778,1.226,6.423,5.655l-1.076.082A7.184,7.184,0,0,1,0,3.917l2.506.212L3.769,0Z" transform="translate(4.398 94.453)"/><path class="m" d="M5.387,49.947,0,47.238,6.251,11.926A6.7,6.7,0,0,1,10.9,6.685L32.905,0l-15.6,18.484Z" transform="translate(6.489 48.698)"/><path class="k" d="M6.635,2.11A14.485,14.485,0,0,1,8.646.368c.97-.679,1.146-.3,1.27.165l.625,2.332c.224.836-.01,1-1.511,1.292a10.535,10.535,0,0,0-3.2.857C4.35,5.664,1.218,6.455.247,5.552s1.1-1.937,2.952-2.71A8.36,8.36,0,0,1,6.635,2.11Z" transform="translate(26.162 97.915)"/><path class="l" d="M5.17,0l1.2,4.474-.869.64A7.184,7.184,0,0,1,0,6.4L2.238,5.256,1.12,1.085Z" transform="translate(29.761 94.194)"/><path class="e" d="M25.366,3.812,40.346,0l1.933,8.182A10.046,10.046,0,0,1,32.5,20.538H14.031l8.8,31.519-5.551,1.351L.74,21.165a6.7,6.7,0,0,1,3.57-9.314Z" transform="translate(13.639 44.886)"/><path class="f" d="M10.462,39.784l.2-.073.513,1.418-.2.073ZM9.217,36.342l.2-.073.513,1.418-.2.073ZM7.973,32.9l.2-.074.513,1.418-.2.073ZM6.728,29.458l.2-.074L7.443,30.8l-.2.073ZM5.483,26.016l.2-.074L6.2,27.36l-.2.073ZM4.238,22.573l.2-.074.513,1.418-.2.073ZM2.993,19.131l.2-.074.513,1.418-.2.073ZM1.749,15.689l.2-.074.513,1.418-.2.074ZM.5,12.246l.2-.074.513,1.418-.2.074ZM0,10.12A2.487,2.487,0,0,1,.642,8.7L.8,8.849a2.274,2.274,0,0,0-.586,1.295ZM2.658,7.869l1.5-.165.024.214-1.5.166Zm3.638-.4,1.5-.165.024.214-1.5.165Zm3.638-.4,1.5-.166.024.214-1.5.166Zm3.638-.4,1.5-.165.024.214-1.5.165Zm3.622-.445a14.494,14.494,0,0,0,1.453-.358l.062.206a14.568,14.568,0,0,1-1.475.363Zm3.449-1.129a14.321,14.321,0,0,0,1.316-.712l.112.184a14.607,14.607,0,0,1-1.336.722Zm3.063-1.949,1.2-.915.131.171-1.2.915ZM26.616.916,27.813,0l.131.171-1.2.915Z" transform="translate(21.862 54.651)"/><path class="l" d="M5.868,15.043q-.811-4.279-2.283-4.352A2.226,2.226,0,0,1,1.314,8.48Q1.266,8.09,1.1,6.857L0,6.469.955,4.2,1.133.983Q9.02-1.82,10.7,3.371t-.47,8.5l.345,2.176Z" transform="translate(31.766 3.032)"/><path class="k" d="M15.521,4.992q5.169-.3,4.84,2.527c-.36,3.082.5,2.475,3.208,7.721q2.711,5.246-4.152,12.373,2.053-6.635-1.8-10.395c-3.855-3.76.019-6.522.421-9.08Q18.4,5.8,15.7,5.879a9.018,9.018,0,0,1-1.166,5.8c-1.715,2.7-2.055,3.471-3.255,3.739-.582-.487-3.844-2.651-1.767-4.684.833-.815.32-3.33-1.144-2.783A7.2,7.2,0,0,1,2.116,6.622C-.422,4.6-.54,4.208,1.035,1.39c0,0,.994-1.991,3.68-1.124,2.356.76,3.515-1.508,7.764.81a6.119,6.119,0,0,1,3.042,3.916Z" transform="translate(30.737 0)"/><path class="l" d="M5.36,4.445,6.7,7.076,5.181,8.461A6.126,6.126,0,0,1,.5,5.312Q-.941,2.684,1.762,0L4.054,3.033,5.583,2l.077.159A2.1,2.1,0,0,1,5.36,4.445Z" transform="translate(8.319 6.991)"/><path class="j" d="M31.842,4.656a8.132,8.132,0,0,1,6.75,4.418c.98,2.012,2.262,8.874,5.854,22.842l1.936,8.194a18.767,18.767,0,0,1,.269,2.306l-17.3-5.982L26.865,27.4l-1.089-4.039a4.755,4.755,0,0,1-3.492-3.888q-.567-2.972,1.267-4.362L11.045,13.236a4.306,4.306,0,0,1-2.619-1.443L0,2.042,4.747,0l7.241,6.762Q28.448,4.447,31.842,4.656Z" transform="translate(9.655 12.264)"/></g><circle class="b" cx="17.69" cy="17.69" r="17.69" transform="translate(48.105)"/><path class="f" d="M14.865.581a1.769,1.769,0,1,1,2.621,2.377l-8.5,9.376a1.769,1.769,0,0,1-2.371.227L.708,8.138A1.769,1.769,0,0,1,2.83,5.307L7.443,8.763Z" transform="translate(57.304 11.145)"/><g transform="translate(0 8.726)"><path class="n" d="M3.072,0,7.864,4.644,5.948,9.425,10.3,15.491,7.864,18.849,1.79,12.356A6.634,6.634,0,0,1,.673,4.913Z" transform="translate(0 34.426)"/><path class="o" d="M12.814,0,7.083,2.56,0,14.815l4.688,5.949,8.125-8.836Z" transform="translate(1.86 19.548)"/><path class="l" d="M0,0H4.783V4.78H0Z" transform="translate(10.171 119.39)"/><path class="l" d="M0,0H4.783V4.78H0Z" transform="translate(24.253 119.39)"/><path class="p" d="M8.995,63.945H2.775L0,0,15.667.388Z" transform="translate(6.821 58.349)"/><path class="q" d="M23.209,63.792H16.63L14.744,29.816,0,0,21.2.349,25.65,22.275a26.535,26.535,0,0,1,.435,7.512Z" transform="translate(6.805 58.429)"/><path class="m" d="M0,0H5.023L8.205,1.062c1.6.568,2.954.8,2.954,2.579a.763.763,0,0,1-.676.827H1.061A1.061,1.061,0,0,1,0,3.407Z" transform="translate(23.987 123.638)"/><path class="n" d="M0,11.683H13.394l18.78-9.435L33.952,0V2.248h4.487s-.65,3.575-2.569,4.44-5.542,0-5.542,0L13.658,18.767,0,20.712Z" transform="translate(32.184 8.817)"/><path class="m" d="M0,0H5.023L8.205,1.062c1.6.568,2.954.8,2.954,2.579a.763.763,0,0,1-.676.827H1.061A1.061,1.061,0,0,1,0,3.407Z" transform="translate(9.905 123.638)"/><path class="n" d="M8.241,16.559S8.5,12.516,9.817,11.97s2.155-.819,1.984-2.2.2-1.846.772-2.12,1.031-1.151-.6-2.091S10.1,1.047,10.1,1.047,1.272-1.837.311,4.354s1.315,9.674,1.315,9.674v2.531Z" transform="translate(13.397 3.337)"/><path class="o" d="M29.278,0V10.813H21.584v28.96H0V9.287A9.287,9.287,0,0,1,9.287,0H29.278Z" transform="translate(6.437 19.045)"/><path class="r" d="M5.5,17.312s2.719-.083,3.108-.939A6.508,6.508,0,0,0,8.96,13.51c-.087-.482-.636-.28-1.069-.28a1.216,1.216,0,0,1-.657-1.709,1.037,1.037,0,0,1,1.373-.488c.3.13,1.031-.235.787-1.419s-.789-2.294,0-2.294,5.21-.507,5.443-3.508S13.329-.889,10.532.48s-3.7,1.242-5.8,1.723S.524,3.273.08,6.968a6.878,6.878,0,0,0,2.731,6.917c1.7,1.341,1.31,1.752,1.545,2.487A1.65,1.65,0,0,0,5.5,17.312Z" transform="translate(9.435 0)"/><path class="s" d="M8.3,60.166l.042-1.547.221.006-.042,1.547Zm.1-3.758.042-1.547.221.006-.043,1.547Zm.1-3.758L8.553,51.1l.221.006-.043,1.547Zm.1-3.757.043-1.547.221.006L8.834,48.9Zm.1-3.758.042-1.547.221.006-.042,1.547Zm.1-3.758.042-1.547.221.006-.043,1.547Zm.1-3.757.042-1.547.221.006-.043,1.547Zm.1-3.758.043-1.547.221.006-.042,1.547Zm.1-3.758.023-.835q.01-.356.008-.711h.221q0,.359-.008.719l-.023.835Zm-.305-5.272.218-.038q.135.766.217,1.54l-.22.023Q8.959,25.59,8.825,24.831Zm-.963-3.615.208-.075q.264.733.475,1.482l-.213.06Q8.123,21.943,7.862,21.216ZM6.553,17.694l.208-.077.54,1.451-.207.077ZM5.242,14.17l.207-.077.54,1.451-.207.077ZM3.932,10.647l.208-.077.54,1.45-.207.077ZM2.621,7.123l.207-.077L3.368,8.5l-.207.077ZM1.31,3.6l.208-.077.54,1.451-.207.077ZM0,.077.207,0l.54,1.451L.54,1.528Z" transform="translate(18.628 60.133)"/></g><text class="t" transform="translate(112.486 28.036)"><tspan x="-12.897" y="0">5%</tspan></text><text class="t" transform="translate(91.486 106.036)"><tspan x="-11.538" y="0">R$</tspan></text></svg>