<svg xmlns="http://www.w3.org/2000/svg" xmlns:xlink="http://www.w3.org/1999/xlink" width="319" height="87" viewBox="0 0 319 87"><defs><style>.a{fill:#F03F39;}.b{clip-path:url(#a);}.c{fill:#fff;}</style><clipPath id="a"><rect class="a" width="319" height="87" rx="18"/></clipPath></defs><g class="b"><path class="c" d="M448.583,194.06l12.635,19.552a1.974,1.974,0,0,1-1.656,3.044H443.585a4.319,4.319,0,0,1-3.623-1.972L425.426,192.19l-1.313-2.01-8.455-13.07a3.471,3.471,0,0,1,0-3.771l8.67-13.389,1.1-1.688,14.536-22.495a4.313,4.313,0,0,1,3.623-1.972H459.56a1.97,1.97,0,0,1,1.653,3.042L444.37,162.869a1.482,1.482,0,0,0,1.059,2.278,84.744,84.744,0,0,0,20.785-.265,83.478,83.478,0,0,0,48.3-24.183,1.07,1.07,0,0,1,1.747,1.176,84.071,84.071,0,0,1-47.206,44.414c-4.293,1.605-13.919,3.556-19.035,4.47A2.16,2.16,0,0,0,448.583,194.06Z" transform="translate(-183.098 -141.708)"/></g></svg>