<svg xmlns="http://www.w3.org/2000/svg" width="33" height="22" viewBox="0 0 33 22"><defs><style>.a{fill:#bdbdbd;}</style></defs><g transform="translate(-217.335 -56)"><path class="a" d="M16.5,33H5.5A5.5,5.5,0,0,1,0,27.5V5.5A5.5,5.5,0,0,1,5.5,0h11A5.5,5.5,0,0,1,22,5.5v22A5.5,5.5,0,0,1,16.5,33ZM5.5,2.2A3.31,3.31,0,0,0,2.2,5.5v22a3.31,3.31,0,0,0,3.3,3.3h11a3.31,3.31,0,0,0,3.3-3.3V5.5a3.31,3.31,0,0,0-3.3-3.3Z" transform="translate(250.335 56) rotate(90)"/><rect class="a" width="4.4" height="2.2" transform="translate(245.935 64.8) rotate(90)"/><rect class="a" width="4.4" height="2.2" transform="translate(223.935 64.8) rotate(90)"/><path class="a" d="M2.736,2.736H4.56a.912.912,0,0,1,.912.912H7.3A2.736,2.736,0,0,0,4.56.912V0H2.736V.912a2.736,2.736,0,0,0,0,5.472H4.56a.912.912,0,0,1,0,1.824H2.736A.912.912,0,0,1,1.824,7.3H0a2.736,2.736,0,0,0,2.736,2.736v.912H4.56v-.912a2.736,2.736,0,1,0,0-5.472H2.736a.912.912,0,0,1,0-1.824Z" transform="translate(241.136 72.472) rotate(180)"/><path class="a" d="M.941-8.256c0,.845-.47,1.4-1.516,1.4h-1.57V-9.612h1.57C.471-9.612.941-9.088.941-8.256Zm-4.965-2.912V-1.8h1.878v-3.65h.886L.806-1.8H2.98L.739-5.6A2.7,2.7,0,0,0,2.873-8.3c0-1.57-1.127-2.871-3.381-2.871Z" transform="translate(230.164 73.556)"/></g></svg>