<svg xmlns="http://www.w3.org/2000/svg" width="50.694" height="50.993" viewBox="0 0 50.694 50.993"><defs><style>.a{fill:#fff;}</style></defs><path class="a" d="M678.511,359.6h0l-6-5.578v-11.8a2.588,2.588,0,0,0-2.588-2.588h-2.341A2.589,2.589,0,0,0,665,342.222v4.807l-7.418-6.9a4.829,4.829,0,0,0-6.56,0L630.087,359.6a3.548,3.548,0,0,0,2.418,6.147h1.578v18.437a5.656,5.656,0,0,0,5.649,5.65h29.133a5.658,5.658,0,0,0,5.651-5.65V365.749h1.578a3.55,3.55,0,0,0,2.417-6.148Zm-28.036,16.475,7.579-.069v9.829h-7.522Zm20.041,8.11a1.652,1.652,0,0,1-1.651,1.65h-6.811v-9.829a3.936,3.936,0,0,0-3.931-3.931h-7.648a3.936,3.936,0,0,0-3.931,3.931v9.829h-6.812a1.651,1.651,0,0,1-1.649-1.65V365.749h32.433ZM633.65,361.749l20.093-18.693a.82.82,0,0,1,1.111,0l20.093,18.693Z" transform="translate(-628.952 -338.843)"/></svg>