<svg xmlns="http://www.w3.org/2000/svg" width="49.829" height="10.095" viewBox="0 0 49.829 10.095"><defs><style>.a{fill:#4267b2;}.b{fill:#f03f39;}</style></defs><g transform="translate(-294.602 -133.222)"><path class="a" d="M329.774,138.325c0-.075.05-.1.141-.164a2.457,2.457,0,0,0,.94-1.942c0-1.917-1.648-2.426-3.684-2.426h-3.237a.268.268,0,0,0-.268.268v9.2a.267.267,0,0,0,.268.268h3.536c2.1,0,3.834-.869,3.834-2.876a2.2,2.2,0,0,0-1.383-2.173C329.826,138.44,329.771,138.4,329.774,138.325Zm-3.532-2.287a.268.268,0,0,1,.268-.268h.6c.839,0,1.228.239,1.228.839s-.389.988-1.228.988h-.6a.268.268,0,0,1-.268-.268Zm1.048,5.513h-.781a.268.268,0,0,1-.268-.268v-1.532a.268.268,0,0,1,.268-.268h.781c1.018,0,1.5.269,1.5.988S328.309,141.551,327.29,141.551Z" transform="translate(-19.915 -0.391)"/><path class="a" d="M351.991,133.983l-2.8,9.2a.268.268,0,0,0,.256.346h2.062a.268.268,0,0,0,.261-.207l.387-1.654a.268.268,0,0,1,.261-.207h2.292a.268.268,0,0,1,.261.207l.387,1.654a.268.268,0,0,0,.261.207h2.152a.268.268,0,0,0,.256-.346l-2.8-9.2a.268.268,0,0,0-.256-.19h-2.719A.268.268,0,0,0,351.991,133.983Zm1.016,5.487a.268.268,0,0,1-.261-.329l.081-.345c.125-.484.316-1.335.47-2.038a.268.268,0,0,1,.523,0c.16.711.323,1.45.475,2.04l.081.345a.268.268,0,0,1-.261.329Z" transform="translate(-37.394 -0.391)"/><path class="a" d="M383.489,141.1c-1.258,0-2.1-1.019-2.1-2.846,0-1.767.988-2.816,2.126-2.816a2.2,2.2,0,0,1,1.416.55.267.267,0,0,0,.372-.04l1.019-1.246a.27.27,0,0,0-.034-.374,4.264,4.264,0,0,0-2.834-1.107c-2.456,0-4.7,1.857-4.7,5.122,0,3.325,2.157,4.973,4.643,4.973a4.111,4.111,0,0,0,3.047-1.264.268.268,0,0,0,.008-.355l-1.013-1.215a.266.266,0,0,0-.383-.027A2.339,2.339,0,0,1,383.489,141.1Z" transform="translate(-57.662)"/><path class="a" d="M299.335,141.1c-1.258,0-2.1-1.019-2.1-2.846,0-1.767.988-2.816,2.127-2.816a2.2,2.2,0,0,1,1.416.55.267.267,0,0,0,.372-.04l1.019-1.246a.27.27,0,0,0-.034-.374,4.264,4.264,0,0,0-2.834-1.107c-2.456,0-4.7,1.857-4.7,5.122,0,3.325,2.157,4.973,4.643,4.973a4.111,4.111,0,0,0,3.047-1.264.268.268,0,0,0,.008-.355l-1.013-1.215a.266.266,0,0,0-.383-.027A2.339,2.339,0,0,1,299.335,141.1Z"/><rect class="a" width="2.576" height="9.735" rx="0.85" transform="translate(330.29 133.402)"/><path class="b" d="M419.034,140.874l1.484,2.3a.232.232,0,0,1-.195.358h-1.877a.507.507,0,0,1-.426-.232l-1.707-2.642-.154-.236-.993-1.535a.408.408,0,0,1,0-.443l1.018-1.573.129-.2,1.707-2.642a.507.507,0,0,1,.426-.232h1.877a.231.231,0,0,1,.194.357l-1.979,3.058a.174.174,0,0,0,.124.268,9.955,9.955,0,0,0,2.442-.031,9.806,9.806,0,0,0,5.674-2.841.126.126,0,0,1,.205.138,9.876,9.876,0,0,1-5.545,5.217,17.389,17.389,0,0,1-2.236.525A.254.254,0,0,0,419.034,140.874Z" transform="translate(-82.566 -0.393)"/></g></svg>