<svg xmlns="http://www.w3.org/2000/svg" width="26.885" height="22" viewBox="0 0 26.885 22"><defs><style>.a{fill:#bdbdbd;}</style></defs><path class="a" d="M423.991,149.8l3.355,5.191a.524.524,0,0,1-.44.808h-4.242a1.147,1.147,0,0,1-.962-.524l-3.859-5.972-.349-.534-2.245-3.47a.921.921,0,0,1,0-1l2.3-3.555.292-.448,3.859-5.972a1.145,1.145,0,0,1,.962-.524H426.9a.523.523,0,0,1,.439.808l-4.472,6.912a.394.394,0,0,0,.281.6,22.5,22.5,0,0,0,5.518-.07,22.163,22.163,0,0,0,12.824-6.421.284.284,0,0,1,.464.312,22.321,22.321,0,0,1-12.533,11.792,39.309,39.309,0,0,1-5.054,1.187A.574.574,0,0,0,423.991,149.8Z" transform="translate(-415.101 -133.795)"/></svg>