<svg xmlns="http://www.w3.org/2000/svg" width="286.284" height="58" viewBox="0 0 286.284 58"><defs><style>.a{fill:#4267b2;}.b{fill:#f03f39;}</style></defs><g transform="translate(-294.602 -133.222)"><path class="a" d="M358.761,159.831c.018-.432.286-.584.808-.942,3.341-2.3,5.4-6.985,5.4-11.156,0-11.013-9.467-13.939-21.169-13.939H325.2a1.538,1.538,0,0,0-1.537,1.539v52.857a1.536,1.536,0,0,0,1.537,1.537h20.319c12.048,0,22.03-4.992,22.03-16.522,0-6.6-3.42-10.6-7.944-12.483C359.058,160.491,358.742,160.243,358.761,159.831Zm-20.3-13.14A1.537,1.537,0,0,1,340,145.153h3.453c4.82,0,7.057,1.375,7.057,4.818s-2.237,5.677-7.057,5.677H340a1.537,1.537,0,0,1-1.537-1.537Zm6.023,31.677H340a1.538,1.538,0,0,1-1.537-1.537v-8.8A1.537,1.537,0,0,1,340,166.494h4.485c5.851,0,8.606,1.548,8.606,5.677S350.34,178.368,344.489,178.368Z" transform="translate(23.503 0.462)"/><path class="a" d="M365.345,134.884l-16.1,52.857a1.538,1.538,0,0,0,1.472,1.986h11.849a1.538,1.538,0,0,0,1.5-1.187l2.225-9.5a1.538,1.538,0,0,1,1.5-1.186h13.167a1.538,1.538,0,0,1,1.5,1.186l2.225,9.5a1.538,1.538,0,0,0,1.5,1.187h12.366a1.537,1.537,0,0,0,1.47-1.986l-16.1-52.857a1.538,1.538,0,0,0-1.47-1.091H366.815A1.538,1.538,0,0,0,365.345,134.884Zm5.84,31.523a1.539,1.539,0,0,1-1.5-1.89l.465-1.982c.718-2.784,1.814-7.672,2.7-11.711a1.538,1.538,0,0,1,3-.007c.921,4.082,1.857,8.331,2.731,11.718l.465,1.982a1.539,1.539,0,0,1-1.5,1.89Z" transform="translate(44.133 0.462)"/><path class="a" d="M405.949,178.486c-7.229,0-12.047-5.853-12.047-16.35,0-10.154,5.679-16.177,12.218-16.177a12.626,12.626,0,0,1,8.137,3.162,1.532,1.532,0,0,0,2.138-.23l5.856-7.159a1.55,1.55,0,0,0-.193-2.147,24.5,24.5,0,0,0-16.28-6.363c-14.113,0-27.022,10.671-27.022,29.431,0,19.1,12.391,28.57,26.676,28.57a23.621,23.621,0,0,0,17.506-7.26,1.541,1.541,0,0,0,.045-2.038l-5.819-6.983a1.529,1.529,0,0,0-2.2-.156A13.438,13.438,0,0,1,405.949,178.486Z" transform="translate(68.053)"/><path class="a" d="M321.8,178.486c-7.229,0-12.048-5.853-12.048-16.35,0-10.154,5.679-16.177,12.219-16.177a12.621,12.621,0,0,1,8.135,3.162,1.532,1.532,0,0,0,2.138-.23l5.856-7.159a1.55,1.55,0,0,0-.193-2.147,24.5,24.5,0,0,0-16.28-6.363c-14.113,0-27.022,10.671-27.022,29.431,0,19.1,12.391,28.57,26.676,28.57a23.619,23.619,0,0,0,17.506-7.26,1.541,1.541,0,0,0,.045-2.038l-5.818-6.983a1.529,1.529,0,0,0-2.2-.156A13.438,13.438,0,0,1,321.8,178.486Z"/><rect class="a" width="14.801" height="55.933" rx="0.85" transform="translate(499.641 134.256)"/><path class="b" d="M437.7,174.468l8.528,13.2a1.332,1.332,0,0,1-1.118,2.055H434.325a2.915,2.915,0,0,1-2.445-1.331l-9.81-15.182-.886-1.357-5.706-8.821a2.343,2.343,0,0,1,0-2.545l5.851-9.036.742-1.139,9.81-15.182a2.911,2.911,0,0,1,2.445-1.331h10.781a1.33,1.33,0,0,1,1.116,2.053l-11.367,17.569a1,1,0,0,0,.714,1.537,57.194,57.194,0,0,0,14.028-.179,56.339,56.339,0,0,0,32.6-16.321.722.722,0,0,1,1.179.794,56.74,56.74,0,0,1-31.86,29.975,99.923,99.923,0,0,1-12.847,3.017A1.458,1.458,0,0,0,437.7,174.468Z" transform="translate(97.444 0.463)"/></g></svg>