<svg xmlns="http://www.w3.org/2000/svg" width="49.354" height="50.298" viewBox="0 0 49.354 50.298"><defs><style>.a{fill:#4267b2;}</style></defs><path class="a" d="M537.526,342.164A5.228,5.228,0,0,0,533,339.538H506.96a5.228,5.228,0,0,0-4.529,2.626L496,353.41a5.258,5.258,0,0,0-.668,3.148,11.637,11.637,0,0,0,4.434,8.273v19.355a5.657,5.657,0,0,0,5.65,5.65h29.133a5.656,5.656,0,0,0,5.649-5.65V364.832a11.638,11.638,0,0,0,4.435-8.273,5.262,5.262,0,0,0-.667-3.148Zm-2.4,20.39c-2.545,0-4.692-2.259-5.356-5.33h10.71C539.806,360.325,537.636,362.554,535.123,362.554Zm-35.643-5.33h10.71c-.664,3.071-2.811,5.33-5.356,5.33C502.322,362.554,500.152,360.326,499.48,357.224ZM505.9,344.15a1.219,1.219,0,0,1,1.057-.612H533a1.219,1.219,0,0,1,1.057.612l5.192,9.074H500.712Zm19.432,13.074c-.664,3.071-2.812,5.33-5.356,5.33-2.6,0-4.694-2.187-5.352-5.33Zm-9.181,18.852,7.579-.069v9.829h-7.521Zm20.04,8.11a1.651,1.651,0,0,1-1.649,1.65h-6.812v-9.829a3.935,3.935,0,0,0-3.93-3.931h-7.649a3.935,3.935,0,0,0-3.93,3.931v9.829h-6.812a1.652,1.652,0,0,1-1.65-1.65v-17.71a8.273,8.273,0,0,0,1.072.078,9.123,9.123,0,0,0,7.538-4.355,8.989,8.989,0,0,0,7.607,4.355,9.137,9.137,0,0,0,7.572-4.407,9.137,9.137,0,0,0,7.572,4.407,8.257,8.257,0,0,0,1.071-.078Z" transform="translate(-495.302 -339.538)"/></svg>
