<svg xmlns="http://www.w3.org/2000/svg" width="22" height="22" viewBox="0 0 22 22"><defs><style>.a{fill:#4267b2;}</style></defs><path class="a" d="M160.9,207.252H148.8a2.751,2.751,0,0,1-2.75-2.75v-7.74a4.4,4.4,0,0,1-2.2-3.81v-1.1a1.1,1.1,0,0,1,.157-.564l3.3-5.5a1.1,1.1,0,0,1,.943-.534h13.2a1.106,1.106,0,0,1,.944.534l3.3,5.5a1.112,1.112,0,0,1,.156.567v1.1a4.4,4.4,0,0,1-2.2,3.81v7.74a2.75,2.75,0,0,1-2.75,2.75Zm-8.25-7.7h4.4a1.1,1.1,0,0,1,1.1,1.1v4.4h2.75a.547.547,0,0,0,.39-.162.553.553,0,0,0,.161-.388v-7.15a4.4,4.4,0,0,1-3.111-1.289c-.064-.063-.126-.129-.189-.2-.061.07-.125.138-.188.2a4.4,4.4,0,0,1-6.223,0c-.064-.062-.125-.128-.189-.2-.061.07-.125.138-.188.2a4.4,4.4,0,0,1-3.112,1.289v7.15a.552.552,0,0,0,.55.55h2.75v-4.4A1.1,1.1,0,0,1,152.648,199.552Zm1.1,2.2h0v3.3h2.2v-3.3Zm4.4-11a1.1,1.1,0,0,1,1.1,1.1v1.1a2.2,2.2,0,0,0,2.2,2.2,2.185,2.185,0,0,0,1.555-.645,2.215,2.215,0,0,0,.645-1.555v-.8l-2.822-4.7H148.871l-2.823,4.7v.8a2.2,2.2,0,0,0,2.2,2.2,2.185,2.185,0,0,0,1.555-.645,2.215,2.215,0,0,0,.645-1.555v-1.1a1.1,1.1,0,1,1,2.2,0v1.1a2.2,2.2,0,0,0,2.2,2.2,2.186,2.186,0,0,0,1.555-.645,2.216,2.216,0,0,0,.644-1.555v-1.1A1.1,1.1,0,0,1,158.148,190.752Z" transform="translate(-143.848 -185.252)"/></svg>