<svg xmlns="http://www.w3.org/2000/svg" xmlns:xlink="http://www.w3.org/1999/xlink" width="24.685" height="24.579" viewBox="0 0 24.685 24.579"><defs><style>.a{fill:url(#a);}.b{fill:url(#b);}.c{fill:#a028ab;}</style><linearGradient id="a" x1="0.092" y1="0.909" x2="0.907" y2="0.09" gradientUnits="objectBoundingBox"><stop offset="0" stop-color="#ffc107"/><stop offset="0.221" stop-color="#f98d1c"/><stop offset="0.514" stop-color="#f1423b"/><stop offset="0.833" stop-color="#b93088"/><stop offset="0.994" stop-color="#9c27b0"/></linearGradient><linearGradient id="b" x1="0.147" y1="0.854" x2="0.853" y2="0.146" xlink:href="#a"/></defs><g transform="translate(-23 -22)"><g transform="translate(23 22)"><path class="a" d="M39.925,22H30.681A7.664,7.664,0,0,0,23,29.662v9.2a7.709,7.709,0,0,0,7.681,7.715h9.244a7.776,7.776,0,0,0,7.76-7.715v-9.2A7.731,7.731,0,0,0,39.925,22Zm5.434,16.864a5.441,5.441,0,0,1-5.434,5.39H30.681a5.419,5.419,0,0,1-5.408-5.39v-9.2a5.419,5.419,0,0,1,5.408-5.389h9.244a5.441,5.441,0,0,1,5.434,5.389Z" transform="translate(-23 -22)"/><path class="b" d="M145.337,137.947a6.134,6.134,0,1,0,6.162,6.134A6.149,6.149,0,0,0,145.337,137.947Zm0,9.968a3.834,3.834,0,1,1,3.851-3.834A3.848,3.848,0,0,1,145.337,147.915Z" transform="translate(-133.034 -131.818)"/><path class="c" d="M367.172,113.779a1.623,1.623,0,1,0,1.63,1.623A1.627,1.627,0,0,0,367.172,113.779Z" transform="translate(-348.607 -109.373)"/></g></g></svg>