<svg xmlns="http://www.w3.org/2000/svg" width="46" height="46" viewBox="0 0 46 46">
<defs>
<style>.a{fill:#42b242;}.b{fill:#fff;}
</style>
</defs>
<g transform="translate(-234 -496)">
<path class="a" d="M257,496h0a22.979,22.979,0,0,1,23,23h0a22.979,22.979,0,0,1-23,23h0a22.979,22.979,0,0,1-23-23h0A22.979,22.979,0,0,1,257,496Z"/>
<path class="b" d="M8.125,23.663C1.272,13.727,0,12.708,0,9.056a9.056,9.056,0,0,1,18.112,0c0,3.651-1.272,4.671-8.125,14.606a1.133,1.133,0,0,1-1.861,0ZM9.056,12.83A3.773,3.773,0,1,0,5.283,9.056,3.773,3.773,0,0,0,9.056,12.83Z" transform="translate(247.943 506.925)"/>
</g>
</svg>
