<svg xmlns="http://www.w3.org/2000/svg" width="46" height="46" viewBox="0 0 46 46">
<defs>
<style>.a{fill:#4267b2;}.b{fill:#fff;}</style>
</defs>
<g transform="translate(-234 -496)">
<path class="a" d="M257,496h0a22.979,22.979,0,0,1,23,23h0a22.979,22.979,0,0,1-23,23h0a22.979,22.979,0,0,1-23-23h0A22.979,22.979,0,0,1,257,496Z"/>
<path class="b" d="M12.9,0H2.277A2.278,2.278,0,0,0,0,2.277V22.012a2.278,2.278,0,0,0,2.277,2.277H12.9a2.278,2.278,0,0,0,2.277-2.277V2.277A2.278,2.278,0,0,0,12.9,0ZM7.59,22.771a1.518,1.518,0,1,1,1.518-1.518A1.516,1.516,0,0,1,7.59,22.771ZM12.9,17.648a.571.571,0,0,1-.569.569H2.846a.571.571,0,0,1-.569-.569V2.846a.571.571,0,0,1,.569-.569h9.488a.571.571,0,0,1,.569.569Z" transform="translate(249.409 506.855)"/>
</g>
</svg>
