<svg xmlns="http://www.w3.org/2000/svg" width="57" height="57" viewBox="0 0 57 57"><defs><style>.a{fill:#42b242;}.b{fill:#fff;}</style></defs><circle class="a" cx="28.5" cy="28.5" r="28.5"/><path class="b" d="M32.455,13.5h-10.6V2.892a.964.964,0,0,0-.964-.964H15.1a.964.964,0,0,0-.964.964V13.5H3.535a.964.964,0,0,0-.964.964v5.784a.964.964,0,0,0,.964.964h10.6v10.6a.964.964,0,0,0,.964.964h5.784a.964.964,0,0,0,.964-.964v-10.6h10.6a.964.964,0,0,0,.964-.964V14.46A.964.964,0,0,0,32.455,13.5Z" transform="translate(10.429 11.072)"/></svg>