<svg xmlns="http://www.w3.org/2000/svg" width="24.003" height="23.996" viewBox="0 0 24.003 23.996"><defs><style>.a{fill:#c9c9c9;}</style></defs><g transform="translate(-302.999 -145.002)"><path class="a" d="M325.8,169a1.2,1.2,0,0,1-.834-.337l-6.385-6.385A9.653,9.653,0,1,1,312.661,145a9.56,9.56,0,0,1,5.915,2.03,9.666,9.666,0,0,1,1.7,13.547l6.385,6.385A1.2,1.2,0,0,1,325.8,169Zm-13.14-21.6a7.207,7.207,0,0,0-5.13,2.125l-.038.038a7.255,7.255,0,0,0,10.3,10.223,7.255,7.255,0,0,0-5.13-12.386Z"/></g></svg>