

<svg xmlns="http://www.w3.org/2000/svg" width="46" height="46" viewBox="0 0 46 46">
<defs>
<style>.a{fill:#15BED5;}.b{fill:#fff;}</style>
</defs>
<g transform="translate(-234 -496)">
<path class="a" d="M257,496h0a22.979,22.979,0,0,1,23,23h0a22.979,22.979,0,0,1-23,23h0a22.979,22.979,0,0,1-23-23h0A22.979,22.979,0,0,1,257,496Z"/>
<path class="b" d="M3.525,1A2.52,2.52,0,0,0,1,3.525v19.42a2.52,2.52,0,0,0,2.525,2.525h19.42a2.52,2.52,0,0,0,2.525-2.525V3.525A2.52,2.52,0,0,0,22.944,1Zm0,1.165h19.42A1.351,1.351,0,0,1,24.3,3.525V6.438H2.165V3.525A1.351,1.351,0,0,1,3.525,2.165ZM4.3,3.719a.583.583,0,1,0,0,1.165h.777a.583.583,0,0,0,0-1.165Zm3.107,0a.583.583,0,0,0,0,1.165h.777a.583.583,0,1,0,0-1.165ZM2.165,7.6H24.3V22.944A1.351,1.351,0,0,1,22.944,24.3H3.525a1.351,1.351,0,0,1-1.359-1.359Zm3.3,4.855a.583.583,0,1,0,0,1.165h7.185a.583.583,0,0,0,0-1.165Zm10.293,0a.572.572,0,0,0-.583.583v5.826a.572.572,0,0,0,.583.583H21a.572.572,0,0,0,.583-.583V13.04A.572.572,0,0,0,21,12.458Zm.583,1.165H20.42v4.661H16.342ZM5.467,15.371a.583.583,0,1,0,0,1.165h7.185a.583.583,0,1,0,0-1.165Zm0,2.913a.583.583,0,0,0,0,1.165H8.574a.583.583,0,1,0,0-1.165Zm6.214,0a.583.583,0,0,0,0,1.165h.971a.583.583,0,0,0,0-1.165Z" transform="translate(244.209 506.055)"/>
</g>
</svg>
