<svg xmlns="http://www.w3.org/2000/svg" width="159.862" height="15.04" viewBox="0 0 159.862 15.04"><defs><style>.a{fill:#ff6721;}.b{fill:#851262;}.c{fill:#b0a99f;}.d{fill:#868686;font-size:10px;font-family:Poppins-Regular, Poppins;}.e{fill:#4267b2;}.f{fill:#f03f39;}</style></defs><g transform="translate(-76.122 -762)"><g transform="translate(-13.497 593.171)"><path class="a" d="M511.294,178.864a4.576,4.576,0,1,0,4.576,4.576A4.582,4.582,0,0,0,511.294,178.864Zm0,6.918a2.341,2.341,0,1,1,2.34-2.341A2.343,2.343,0,0,1,511.294,185.782Z" transform="translate(-266.388 -8.207)"/><path class="a" d="M300.408,178.428a4.574,4.574,0,0,0-.384-4.567.179.179,0,0,1,.018-.228,2.376,2.376,0,0,1,.461-.369.18.18,0,0,0,.072-.224l-.744-1.735a.183.183,0,0,0-.1-.1.174.174,0,0,0-.143.01,4.649,4.649,0,0,0-1.29,1.013.182.182,0,0,1-.2.046,4.577,4.577,0,1,0,.252,8.278.184.184,0,0,1,.182.012.178.178,0,0,1,.079.163,2.352,2.352,0,0,1-2.332,2.146,2.316,2.316,0,0,1-1.4-.466.178.178,0,0,0-.234.017L293.3,183.76a.184.184,0,0,0-.053.134.179.179,0,0,0,.063.13,4.577,4.577,0,0,0,7.1-5.442A.178.178,0,0,1,300.408,178.428Zm-4.139.389a2.341,2.341,0,1,1,2.34-2.341A2.343,2.343,0,0,1,296.268,178.817Z" transform="translate(-71.072 -1.242)"/><path class="a" d="M220.444,179.5l-.736-1.811a.178.178,0,0,0-.167-.112h-.022a2.344,2.344,0,0,1-2.341-2.341v-1.495a.179.179,0,0,1,.179-.179h2.723a.179.179,0,0,0,.179-.179v-1.7a.179.179,0,0,0-.179-.179h-2.723a.179.179,0,0,1-.179-.18v-1.316a.179.179,0,0,0-.18-.179h-1.877a.179.179,0,0,0-.179.179v1.316a.179.179,0,0,1-.179.18h-1.137a.179.179,0,0,0-.179.179v1.7a.179.179,0,0,0,.179.179h1.137a.179.179,0,0,1,.179.179v1.495a4.577,4.577,0,0,0,5.368,4.508.178.178,0,0,0,.134-.244Z" transform="translate(0 0)"/><path class="b" d="M470.33,234.916a2.3,2.3,0,0,1-.326.722c-.039.056-.036.082.005.123l1.5,1.49a.05.05,0,0,0,.073,0,4.562,4.562,0,0,0,.961-1.974.05.05,0,0,0-.041-.059l-2.118-.335A.048.048,0,0,0,470.33,234.916Z" transform="translate(-233.015 -59.088)"/><path class="c" d="M418.9,248.971l-1.519-1.507a.048.048,0,0,0-.066,0,2.333,2.333,0,0,1-2.992.109c-.051-.039-.1-.08-.147-.123a.071.071,0,0,0-.092,0l-.143.112-1.538,1.2a.049.049,0,0,0-.006.071,4.568,4.568,0,0,0,6.5.211A.049.049,0,0,0,418.9,248.971Z" transform="translate(-180.702 -70.488)"/><path class="a" d="M401.845,184.753l-.024-.036a2.341,2.341,0,1,1,4.3-1.277c0,.012,0,.024,0,.036s0,.025,0,.038a.053.053,0,0,0,.044.054l.06.009,2.007.317.047.007a.05.05,0,0,0,.06-.043c0-.013,0-.026,0-.038q.016-.188.016-.38a4.577,4.577,0,1,0-8.314,2.639l.038.053a.056.056,0,0,0,.075.007l.041-.032,1.6-1.249.037-.029A.054.054,0,0,0,401.845,184.753Z" transform="translate(-168.73 -8.206)"/></g><text class="d" transform="translate(128.951 773)"><tspan x="0" y="0">é um produto</tspan></text><g transform="translate(-218.48 630.778)"><path class="e" d="M329.774,138.325c0-.075.05-.1.141-.164a2.457,2.457,0,0,0,.94-1.942c0-1.917-1.648-2.426-3.684-2.426h-3.237a.268.268,0,0,0-.268.268v9.2a.267.267,0,0,0,.268.268h3.536c2.1,0,3.834-.869,3.834-2.876a2.2,2.2,0,0,0-1.383-2.173C329.826,138.44,329.771,138.4,329.774,138.325Zm-3.532-2.287a.268.268,0,0,1,.268-.268h.6c.839,0,1.228.239,1.228.839s-.389.988-1.228.988h-.6a.268.268,0,0,1-.268-.268Zm1.048,5.513h-.781a.268.268,0,0,1-.268-.268v-1.532a.268.268,0,0,1,.268-.268h.781c1.018,0,1.5.269,1.5.988S328.309,141.551,327.29,141.551Z" transform="translate(-19.915 -0.391)"/><path class="e" d="M351.991,133.983l-2.8,9.2a.268.268,0,0,0,.256.346h2.062a.268.268,0,0,0,.261-.207l.387-1.654a.268.268,0,0,1,.261-.207h2.292a.268.268,0,0,1,.261.207l.387,1.654a.268.268,0,0,0,.261.207h2.152a.268.268,0,0,0,.256-.346l-2.8-9.2a.268.268,0,0,0-.256-.19h-2.719A.268.268,0,0,0,351.991,133.983Zm1.016,5.487a.268.268,0,0,1-.261-.329l.081-.345c.125-.484.316-1.335.47-2.038a.268.268,0,0,1,.523,0c.16.711.323,1.45.475,2.04l.081.345a.268.268,0,0,1-.261.329Z" transform="translate(-37.394 -0.391)"/><path class="e" d="M383.489,141.1c-1.258,0-2.1-1.019-2.1-2.846,0-1.767.988-2.816,2.126-2.816a2.2,2.2,0,0,1,1.416.55.267.267,0,0,0,.372-.04l1.019-1.246a.27.27,0,0,0-.034-.374,4.264,4.264,0,0,0-2.834-1.107c-2.456,0-4.7,1.857-4.7,5.122,0,3.325,2.157,4.973,4.643,4.973a4.111,4.111,0,0,0,3.047-1.264.268.268,0,0,0,.008-.355l-1.013-1.215a.266.266,0,0,0-.383-.027A2.339,2.339,0,0,1,383.489,141.1Z" transform="translate(-57.662)"/><path class="e" d="M299.335,141.1c-1.258,0-2.1-1.019-2.1-2.846,0-1.767.988-2.816,2.127-2.816a2.2,2.2,0,0,1,1.416.55.267.267,0,0,0,.372-.04l1.019-1.246a.27.27,0,0,0-.034-.374,4.264,4.264,0,0,0-2.834-1.107c-2.456,0-4.7,1.857-4.7,5.122,0,3.325,2.157,4.973,4.643,4.973a4.111,4.111,0,0,0,3.047-1.264.268.268,0,0,0,.008-.355l-1.013-1.215a.266.266,0,0,0-.383-.027A2.339,2.339,0,0,1,299.335,141.1Z"/><rect class="e" width="2.576" height="9.735" rx="0.85" transform="translate(330.29 133.402)"/><path class="f" d="M419.034,140.874l1.484,2.3a.232.232,0,0,1-.195.358h-1.877a.507.507,0,0,1-.426-.232l-1.707-2.642-.154-.236-.993-1.535a.408.408,0,0,1,0-.443l1.018-1.573.129-.2,1.707-2.642a.507.507,0,0,1,.426-.232h1.877a.231.231,0,0,1,.194.357l-1.979,3.058a.174.174,0,0,0,.124.268,9.955,9.955,0,0,0,2.442-.031,9.806,9.806,0,0,0,5.674-2.841.126.126,0,0,1,.205.138,9.876,9.876,0,0,1-5.545,5.217,17.389,17.389,0,0,1-2.236.525A.254.254,0,0,0,419.034,140.874Z" transform="translate(-82.566 -0.393)"/></g></g></svg>