<svg xmlns="http://www.w3.org/2000/svg" width="36.033" height="14.04" viewBox="0 0 36.033 14.04"><defs><style>.a{fill:#e5861f;}.b{fill:#851262;}.c{fill:#b0a99f;}</style></defs><g transform="translate(-213.448 -169.829)"><path class="a" d="M511.294,178.864a4.576,4.576,0,1,0,4.576,4.576A4.582,4.582,0,0,0,511.294,178.864Zm0,6.918a2.341,2.341,0,1,1,2.34-2.341A2.343,2.343,0,0,1,511.294,185.782Z" transform="translate(-266.388 -8.207)"/><path class="a" d="M300.408,178.428a4.574,4.574,0,0,0-.384-4.567.179.179,0,0,1,.018-.228,2.376,2.376,0,0,1,.461-.369.18.18,0,0,0,.072-.224l-.744-1.735a.183.183,0,0,0-.1-.1.174.174,0,0,0-.143.01,4.649,4.649,0,0,0-1.29,1.013.182.182,0,0,1-.2.046,4.577,4.577,0,1,0,.252,8.278.184.184,0,0,1,.182.012.178.178,0,0,1,.079.163,2.352,2.352,0,0,1-2.332,2.146,2.316,2.316,0,0,1-1.4-.466.178.178,0,0,0-.234.017L293.3,183.76a.184.184,0,0,0-.053.134.179.179,0,0,0,.063.13,4.577,4.577,0,0,0,7.1-5.442A.178.178,0,0,1,300.408,178.428Zm-4.139.389a2.341,2.341,0,1,1,2.34-2.341A2.343,2.343,0,0,1,296.268,178.817Z" transform="translate(-71.072 -1.242)"/><path class="a" d="M220.444,179.5l-.736-1.811a.178.178,0,0,0-.167-.112h-.022a2.344,2.344,0,0,1-2.341-2.341v-1.495a.179.179,0,0,1,.179-.179h2.723a.179.179,0,0,0,.179-.179v-1.7a.179.179,0,0,0-.179-.179h-2.723a.179.179,0,0,1-.179-.18v-1.316a.179.179,0,0,0-.18-.179h-1.877a.179.179,0,0,0-.179.179v1.316a.179.179,0,0,1-.179.18h-1.137a.179.179,0,0,0-.179.179v1.7a.179.179,0,0,0,.179.179h1.137a.179.179,0,0,1,.179.179v1.495a4.577,4.577,0,0,0,5.368,4.508.178.178,0,0,0,.134-.244Z" transform="translate(0 0)"/><path class="b" d="M470.33,234.916a2.3,2.3,0,0,1-.326.722c-.039.056-.036.082.005.123l1.5,1.49a.05.05,0,0,0,.073,0,4.562,4.562,0,0,0,.961-1.974.05.05,0,0,0-.041-.059l-2.118-.335A.048.048,0,0,0,470.33,234.916Z" transform="translate(-233.015 -59.088)"/><path class="c" d="M418.9,248.971l-1.519-1.507a.048.048,0,0,0-.066,0,2.333,2.333,0,0,1-2.992.109c-.051-.039-.1-.08-.147-.123a.071.071,0,0,0-.092,0l-.143.112-1.538,1.2a.049.049,0,0,0-.006.071,4.568,4.568,0,0,0,6.5.211A.049.049,0,0,0,418.9,248.971Z" transform="translate(-180.702 -70.488)"/><path class="a" d="M401.845,184.753l-.024-.036a2.341,2.341,0,1,1,4.3-1.277c0,.012,0,.024,0,.036s0,.025,0,.038a.053.053,0,0,0,.044.054l.06.009,2.007.317.047.007a.05.05,0,0,0,.06-.043c0-.013,0-.026,0-.038q.016-.188.016-.38a4.577,4.577,0,1,0-8.314,2.639l.038.053a.056.056,0,0,0,.075.007l.041-.032,1.6-1.249.037-.029A.054.054,0,0,0,401.845,184.753Z" transform="translate(-168.73 -8.206)"/></g></svg>