<svg xmlns="http://www.w3.org/2000/svg" width="23.082" height="23.082" viewBox="0 0 23.082 23.082"><defs><style>.a{fill:#fefefe;}</style></defs><path class="a" d="M16.828,13.832c-.289-.144-1.7-.834-1.962-.929s-.455-.144-.647.144-.741.927-.908,1.118-.336.2-.621.072a7.805,7.805,0,0,1-2.311-1.428,8.725,8.725,0,0,1-1.6-1.991c-.167-.289-.018-.447.125-.591s.289-.332.434-.5a2.438,2.438,0,0,0,.286-.477.529.529,0,0,0-.024-.5c-.072-.144-.646-1.558-.887-2.122s-.468-.49-.646-.49-.357-.014-.549-.014a1.084,1.084,0,0,0-.766.345,3.211,3.211,0,0,0-1.005,2.38A5.627,5.627,0,0,0,6.922,11.8a12.824,12.824,0,0,0,4.9,4.313c.687.289,1.221.462,1.639.6a3.979,3.979,0,0,0,1.808.116,2.96,2.96,0,0,0,1.939-1.371,2.381,2.381,0,0,0,.173-1.37c-.071-.13-.26-.2-.548-.332M11.6,20.918h-.015A9.621,9.621,0,0,1,6.722,19.59l-.346-.206-3.606.938.967-3.506-.23-.361A9.538,9.538,0,0,1,18.362,4.689a9.413,9.413,0,0,1,2.8,6.722,9.55,9.55,0,0,1-9.555,9.507m8.13-17.6A11.677,11.677,0,0,0,11.584,0,11.435,11.435,0,0,0,1.631,17.155L0,23.082l6.093-1.589a11.6,11.6,0,0,0,5.491,1.392h.006A11.483,11.483,0,0,0,23.082,11.444,11.343,11.343,0,0,0,19.72,3.355"/></svg>